<svg xmlns="http://www.w3.org/2000/svg" viewBox="0 0 120 120" role="img" aria-label="Tracer Study UMM Crest">
  <defs>
    <linearGradient id="bg" x1="0" y1="0" x2="1" y2="1">
      <stop offset="0%" stop-color="#243f64"/>
      <stop offset="100%" stop-color="#3d6696"/>
    </linearGradient>
    <linearGradient id="ring" x1="0" y1="0" x2="1" y2="1">
      <stop offset="0%" stop-color="#c89552"/>
      <stop offset="100%" stop-color="#ad7139"/>
    </linearGradient>
  </defs>

  <circle cx="60" cy="60" r="56" fill="url(#bg)"/>
  <circle cx="60" cy="60" r="47" fill="none" stroke="url(#ring)" stroke-width="4.8"/>

  <path d="M60 27L84 37v8c0 18-8 33-24 46C44 78 36 63 36 45v-8z" fill="#efe3d1"/>
  <path d="M60 36l15 7v4c0 11-5 20-15 28-10-8-15-17-15-28v-4z" fill="#264673"/>
  <rect x="43" y="59" width="34" height="5" fill="#efe3d1"/>
  <rect x="43" y="67" width="24" height="5" fill="#efe3d1"/>
  <circle cx="60" cy="44" r="4" fill="#c89552"/>
</svg>
